<svg xmlns="http://www.w3.org/2000/svg" viewBox="0 0 96 96" role="img" aria-label="Codario Labs favicon">
  <defs>
    <linearGradient id="grad" x1="0%" y1="0%" x2="100%" y2="100%">
      <stop offset="0%" stop-color="#3BAFDA" />
      <stop offset="100%" stop-color="#9BE564" />
    </linearGradient>
  </defs>
  <rect width="96" height="96" rx="24" ry="24" fill="#0A2540" />
  <path fill="url(#grad)" d="M60.8 21.5c-9.8-.1-19.1 4.8-24.6 13.3C28 45.5 29.9 59.6 39.7 67c7 5.2 16.1 5.8 23.8 1.5 1.8-1 2.6-3.4 1.6-5.2s-3.4-2.6-5.2-1.6c-4.8 2.6-10.5 2.2-15.2-1.1-7.1-5-9-15-4-22.1 5-7.1 15-9 22.1-4 1.4 1 3.4.5 4.4-.9 1-1.4.6-3.4-.9-4.4-4.3-3-9.3-4.5-14.5-4.5Z" />
</svg>
