<svg xmlns="http://www.w3.org/2000/svg" viewBox="0 0 128 128" role="img" aria-labelledby="title desc">
  <title id="title">Codario Labs logo placeholder</title>
  <desc id="desc">Curved C shape with cyan to lime gradient</desc>
  <defs>
    <linearGradient id="codarioGradient" x1="0%" y1="0%" x2="100%" y2="100%">
      <stop offset="0%" stop-color="#3BAFDA"/>
      <stop offset="100%" stop-color="#9BE564"/>
    </linearGradient>
    <linearGradient id="codarioDepth" x1="0%" y1="0%" x2="100%" y2="100%">
      <stop offset="0%" stop-color="#0A2540"/>
      <stop offset="100%" stop-color="#103B6B"/>
    </linearGradient>
  </defs>
  <path fill="url(#codarioGradient)" d="M80.4 15.1C65.5 15 51 22.9 41.8 36.4c-14 20.5-8.6 49.1 11.9 63.1 13 8.9 29.6 9.8 42.9 2.6 3.3-1.8 4.7-5.9 2.9-9.2-1.8-3.3-5.9-4.7-9.2-2.9-8.9 4.9-19.7 4.2-28.6-2-13.3-9.2-16.7-27.5-7.5-40.8 9.2-13.3 27.5-16.7 40.8-7.5 2.7 1.8 6.3 1 8.1-1.7 1.9-2.7 1.1-6.2-1.6-8.1-8-5.5-17.2-8.3-26.5-8.3Z"/>
  <path fill="url(#codarioDepth)" d="M88.4 34.2c-2.3-2-5.7-1.8-7.8.5-2.1 2.3-1.9 5.8.4 7.9 7.7 6.8 8.5 18.6 1.7 26.3-5.7 6.4-15.1 8.3-22.9 4.6-3.1-1.5-6.8-.1-8.3 3-1.5 3.1-.1 6.8 3 8.4 13.1 6.4 29.1 3.4 38.9-7.6 11.2-12.6 10.1-32-2.2-43.1Z"/>
</svg>
